<svg width="59" height="16" viewBox="0 0 59 16" fill="none" xmlns="http://www.w3.org/2000/svg">
<path d="M0.74 8.02C0.74 6.66 1.05333 5.44 1.68 4.36C2.32 3.28 3.18 2.44 4.26 1.84C5.35333 1.22667 6.54667 0.919999 7.84 0.919999C9.32 0.919999 10.6333 1.28667 11.78 2.02C12.94 2.74 13.78 3.76667 14.3 5.1H11.56C11.2 4.36667 10.7 3.82 10.06 3.46C9.42 3.1 8.68 2.92 7.84 2.92C6.92 2.92 6.1 3.12667 5.38 3.54C4.66 3.95333 4.09333 4.54667 3.68 5.32C3.28 6.09333 3.08 6.99333 3.08 8.02C3.08 9.04667 3.28 9.94667 3.68 10.72C4.09333 11.4933 4.66 12.0933 5.38 12.52C6.1 12.9333 6.92 13.14 7.84 13.14C8.68 13.14 9.42 12.96 10.06 12.6C10.7 12.24 11.2 11.6933 11.56 10.96H14.3C13.78 12.2933 12.94 13.32 11.78 14.04C10.6333 14.76 9.32 15.12 7.84 15.12C6.53333 15.12 5.34 14.82 4.26 14.22C3.18 13.6067 2.32 12.76 1.68 11.68C1.05333 10.6 0.74 9.38 0.74 8.02ZM25.3488 12.16H19.5288L18.5288 15H16.1488L21.1288 1.08H23.7688L28.7488 15H26.3488L25.3488 12.16ZM24.7088 10.3L22.4488 3.84L20.1688 10.3H24.7088ZM33.1941 13.16H37.8941V15H30.9141V1.1H33.1941V13.16ZM42.0808 13.16H46.7808V15H39.8008V1.1H42.0808V13.16ZM53.2675 15.14C52.3342 15.14 51.4942 14.98 50.7475 14.66C50.0008 14.3267 49.4142 13.86 48.9875 13.26C48.5608 12.66 48.3475 11.96 48.3475 11.16H50.7875C50.8408 11.76 51.0742 12.2533 51.4875 12.64C51.9142 13.0267 52.5075 13.22 53.2675 13.22C54.0542 13.22 54.6675 13.0333 55.1075 12.66C55.5475 12.2733 55.7675 11.78 55.7675 11.18C55.7675 10.7133 55.6275 10.3333 55.3475 10.04C55.0808 9.74667 54.7408 9.52 54.3275 9.36C53.9275 9.2 53.3675 9.02667 52.6475 8.84C51.7408 8.6 51.0008 8.36 50.4275 8.12C49.8675 7.86667 49.3875 7.48 48.9875 6.96C48.5875 6.44 48.3875 5.74667 48.3875 4.88C48.3875 4.08 48.5875 3.38 48.9875 2.78C49.3875 2.18 49.9475 1.72 50.6675 1.4C51.3875 1.08 52.2208 0.919999 53.1675 0.919999C54.5142 0.919999 55.6142 1.26 56.4675 1.94C57.3342 2.60667 57.8142 3.52667 57.9075 4.7H55.3875C55.3475 4.19333 55.1075 3.76 54.6675 3.4C54.2275 3.04 53.6475 2.86 52.9275 2.86C52.2742 2.86 51.7408 3.02667 51.3275 3.36C50.9142 3.69333 50.7075 4.17333 50.7075 4.8C50.7075 5.22667 50.8342 5.58 51.0875 5.86C51.3542 6.12667 51.6875 6.34 52.0875 6.5C52.4875 6.66 53.0342 6.83333 53.7275 7.02C54.6475 7.27333 55.3942 7.52667 55.9675 7.78C56.5542 8.03333 57.0475 8.42667 57.4475 8.96C57.8608 9.48 58.0675 10.18 58.0675 11.06C58.0675 11.7667 57.8742 12.4333 57.4875 13.06C57.1142 13.6867 56.5608 14.1933 55.8275 14.58C55.1075 14.9533 54.2542 15.14 53.2675 15.14Z" fill="#9EA2A6"/>
</svg>
