<svg width="22" height="20" viewBox="0 0 22 20" fill="none" xmlns="http://www.w3.org/2000/svg">
<path d="M21.0875 18.1787L20.3291 15.5237C20.8661 14.4854 21.1393 13.3308 21.1247 12.1619C21.1101 10.9929 20.8081 9.84553 20.2453 8.82088C19.6826 7.79623 18.8763 6.92578 17.8977 6.28632C16.9191 5.64685 15.7981 5.258 14.6337 5.15406C14.2821 4.25264 13.7505 3.43229 13.0714 2.74303C12.3923 2.05378 11.58 1.51007 10.6839 1.14504C9.78777 0.780022 8.82672 0.601343 7.85931 0.619902C6.8919 0.638462 5.9384 0.85387 5.05697 1.25299C4.17553 1.65212 3.38462 2.22659 2.73247 2.94138C2.08032 3.65618 1.5806 4.49631 1.26377 5.41056C0.946937 6.3248 0.819641 7.294 0.889643 8.25906C0.959644 9.22411 1.22548 10.1648 1.67093 11.0237L0.91249 13.6787C0.872436 13.8182 0.865311 13.9651 0.891676 14.1078C0.91804 14.2505 0.977174 14.3852 1.06442 14.5011C1.15167 14.6171 1.26465 14.7112 1.39446 14.7761C1.52427 14.841 1.66737 14.8748 1.81249 14.875C1.90132 14.8749 1.98969 14.8623 2.07499 14.8375L4.72999 14.0791C5.551 14.5033 6.4467 14.7638 7.36718 14.8459C7.73082 15.7759 8.28588 16.619 8.99634 17.3207C9.70681 18.0223 10.5568 18.5668 11.4913 18.9188C12.4257 19.2708 13.4237 19.4224 14.4205 19.3639C15.4173 19.3054 16.3907 19.038 17.2775 18.5791L19.9325 19.3375C20.0178 19.3623 20.1062 19.3749 20.195 19.375C20.3398 19.3743 20.4825 19.34 20.6118 19.2748C20.7411 19.2097 20.8536 19.1155 20.9404 18.9996C21.0273 18.8837 21.0861 18.7493 21.1122 18.6069C21.1384 18.4645 21.1312 18.3179 21.0912 18.1787H21.0875ZM4.76843 13.3037C4.7335 13.3036 4.69874 13.3087 4.6653 13.3187L1.86499 14.1184C1.83288 14.1275 1.79891 14.1279 1.76661 14.1195C1.7343 14.1111 1.70483 14.0942 1.68122 14.0706C1.65762 14.047 1.64075 14.0176 1.63234 13.9853C1.62394 13.9529 1.62432 13.919 1.63343 13.8869L2.43311 11.0866C2.45992 10.9924 2.44882 10.8914 2.40218 10.8053C1.66838 9.45915 1.4443 7.89362 1.77102 6.39566C2.09773 4.89771 2.95334 3.56767 4.18104 2.64932C5.40874 1.73096 6.92628 1.28582 8.45553 1.39547C9.98477 1.50513 11.4233 2.16223 12.5074 3.24634C13.5915 4.33046 14.2486 5.76897 14.3583 7.29821C14.4679 8.82746 14.0228 10.345 13.1044 11.5727C12.1861 12.8004 10.856 13.656 9.35808 13.9827C7.86012 14.3094 6.29459 14.0854 4.94843 13.3516C4.89358 13.3201 4.83166 13.303 4.76843 13.3019V13.3037ZM20.3187 18.5687C20.2948 18.593 20.2647 18.6103 20.2316 18.6187C20.1986 18.6271 20.1639 18.6264 20.1312 18.6166L17.3309 17.8169C17.2367 17.7901 17.1358 17.8012 17.0497 17.8478C16.2793 18.2679 15.4306 18.5245 14.5565 18.6014C13.6824 18.6784 12.8019 18.5741 11.97 18.295C11.1381 18.0159 10.3727 17.5682 9.72188 16.9797C9.07102 16.3912 8.54866 15.6747 8.18749 14.875C9.26114 14.8466 10.3145 14.5759 11.2688 14.0831C12.223 13.5903 13.0536 12.8881 13.6982 12.029C14.3428 11.17 14.7849 10.1763 14.9914 9.12231C15.1979 8.06832 15.1635 6.98129 14.8906 5.9425C15.9107 6.08635 16.8808 6.47529 17.7177 7.076C18.5546 7.67671 19.2335 8.4713 19.6962 9.39174C20.1589 10.3122 20.3917 11.331 20.3745 12.3611C20.3574 13.3912 20.0909 14.4017 19.5978 15.3062C19.5512 15.3924 19.5401 15.4933 19.5669 15.5875L20.3666 18.3878C20.3751 18.4195 20.3752 18.4529 20.3668 18.4847C20.3584 18.5164 20.3419 18.5454 20.3187 18.5687Z" fill="white"/>
</svg>
