<svg width="60" height="16" viewBox="0 0 60 16" fill="none" xmlns="http://www.w3.org/2000/svg">
<path d="M0.74 8.02C0.74 6.66 1.05333 5.44 1.68 4.36C2.32 3.28 3.18 2.44 4.26 1.84C5.35333 1.22667 6.54667 0.919999 7.84 0.919999C9.32 0.919999 10.6333 1.28667 11.78 2.02C12.94 2.74 13.78 3.76667 14.3 5.1H11.56C11.2 4.36667 10.7 3.82 10.06 3.46C9.42 3.1 8.68 2.92 7.84 2.92C6.92 2.92 6.1 3.12667 5.38 3.54C4.66 3.95333 4.09333 4.54667 3.68 5.32C3.28 6.09333 3.08 6.99333 3.08 8.02C3.08 9.04667 3.28 9.94667 3.68 10.72C4.09333 11.4933 4.66 12.0933 5.38 12.52C6.1 12.9333 6.92 13.14 7.84 13.14C8.68 13.14 9.42 12.96 10.06 12.6C10.7 12.24 11.2 11.6933 11.56 10.96H14.3C13.78 12.2933 12.94 13.32 11.78 14.04C10.6333 14.76 9.32 15.12 7.84 15.12C6.53333 15.12 5.34 14.82 4.26 14.22C3.18 13.6067 2.32 12.76 1.68 11.68C1.05333 10.6 0.74 9.38 0.74 8.02ZM22.6688 3.8C23.5088 3.8 24.2554 3.98 24.9088 4.34C25.5754 4.7 26.0954 5.23333 26.4688 5.94C26.8554 6.64667 27.0488 7.5 27.0488 8.5V15H24.7888V8.84C24.7888 7.85333 24.5421 7.1 24.0488 6.58C23.5554 6.04667 22.8821 5.78 22.0288 5.78C21.1754 5.78 20.4954 6.04667 19.9888 6.58C19.4954 7.1 19.2488 7.85333 19.2488 8.84V15H16.9688V0.2H19.2488V5.26C19.6354 4.79333 20.1221 4.43333 20.7088 4.18C21.3088 3.92667 21.9621 3.8 22.6688 3.8ZM29.197 9.44C29.197 8.33333 29.4237 7.35333 29.877 6.5C30.3437 5.64667 30.9704 4.98667 31.757 4.52C32.557 4.04 33.437 3.8 34.397 3.8C35.2637 3.8 36.017 3.97333 36.657 4.32C37.3104 4.65333 37.8304 5.07333 38.217 5.58V3.98H40.517V15H38.217V13.36C37.8304 13.88 37.3037 14.3133 36.637 14.66C35.9704 15.0067 35.2104 15.18 34.357 15.18C33.4104 15.18 32.5437 14.94 31.757 14.46C30.9704 13.9667 30.3437 13.2867 29.877 12.42C29.4237 11.54 29.197 10.5467 29.197 9.44ZM38.217 9.48C38.217 8.72 38.057 8.06 37.737 7.5C37.4304 6.94 37.0237 6.51333 36.517 6.22C36.0104 5.92667 35.4637 5.78 34.877 5.78C34.2904 5.78 33.7437 5.92667 33.237 6.22C32.7304 6.5 32.317 6.92 31.997 7.48C31.6904 8.02667 31.537 8.68 31.537 9.44C31.537 10.2 31.6904 10.8667 31.997 11.44C32.317 12.0133 32.7304 12.4533 33.237 12.76C33.757 13.0533 34.3037 13.2 34.877 13.2C35.4637 13.2 36.0104 13.0533 36.517 12.76C37.0237 12.4667 37.4304 12.04 37.737 11.48C38.057 10.9067 38.217 10.24 38.217 9.48ZM46.1717 5.84V11.94C46.1717 12.3533 46.2651 12.6533 46.4517 12.84C46.6517 13.0133 46.9851 13.1 47.4517 13.1H48.8517V15H47.0517C46.0251 15 45.2384 14.76 44.6917 14.28C44.1451 13.8 43.8717 13.02 43.8717 11.94V5.84H42.5717V3.98H43.8717V1.24H46.1717V3.98H48.8517V5.84H46.1717ZM54.9531 15.18C54.0865 15.18 53.3065 15.0267 52.6131 14.72C51.9331 14.4 51.3931 13.9733 50.9931 13.44C50.5931 12.8933 50.3798 12.2867 50.3531 11.62H52.7131C52.7531 12.0867 52.9731 12.48 53.3731 12.8C53.7865 13.1067 54.2998 13.26 54.9131 13.26C55.5531 13.26 56.0465 13.14 56.3931 12.9C56.7531 12.6467 56.9331 12.3267 56.9331 11.94C56.9331 11.5267 56.7331 11.22 56.3331 11.02C55.9465 10.82 55.3265 10.6 54.4731 10.36C53.6465 10.1333 52.9731 9.91333 52.4531 9.7C51.9331 9.48667 51.4798 9.16 51.0931 8.72C50.7198 8.28 50.5331 7.7 50.5331 6.98C50.5331 6.39333 50.7065 5.86 51.0531 5.38C51.3998 4.88667 51.8931 4.5 52.5331 4.22C53.1865 3.94 53.9331 3.8 54.7731 3.8C56.0265 3.8 57.0331 4.12 57.7931 4.76C58.5665 5.38667 58.9798 6.24667 59.0331 7.34H56.7531C56.7131 6.84667 56.5131 6.45333 56.1531 6.16C55.7931 5.86667 55.3065 5.72 54.6931 5.72C54.0931 5.72 53.6331 5.83333 53.3131 6.06C52.9931 6.28667 52.8331 6.58667 52.8331 6.96C52.8331 7.25333 52.9398 7.5 53.1531 7.7C53.3665 7.9 53.6265 8.06 53.9331 8.18C54.2398 8.28667 54.6931 8.42667 55.2931 8.6C56.0931 8.81333 56.7465 9.03333 57.2531 9.26C57.7731 9.47333 58.2198 9.79333 58.5931 10.22C58.9665 10.6467 59.1598 11.2133 59.1731 11.92C59.1731 12.5467 58.9998 13.1067 58.6531 13.6C58.3065 14.0933 57.8131 14.48 57.1731 14.76C56.5465 15.04 55.8065 15.18 54.9531 15.18Z" fill="#08B09E"/>
</svg>
