<svg width="25" height="24" viewBox="0 0 25 24" fill="none" xmlns="http://www.w3.org/2000/svg">
<path fill-rule="evenodd" clip-rule="evenodd" d="M15.5 1.25H11.444C9.606 1.25 8.15 1.25 7.011 1.403C5.839 1.561 4.89 1.893 4.141 2.641C3.393 3.39 3.061 4.339 2.903 5.511C2.75 6.651 2.75 8.106 2.75 9.944V16C2.75002 16.8934 3.06894 17.7575 3.64934 18.4367C4.22974 19.1159 5.03351 19.5657 5.916 19.705C6.053 20.469 6.318 21.121 6.848 21.652C7.45 22.254 8.208 22.512 9.108 22.634C9.975 22.75 11.078 22.75 12.445 22.75H15.555C16.922 22.75 18.025 22.75 18.892 22.634C19.792 22.512 20.55 22.254 21.152 21.652C21.754 21.05 22.012 20.292 22.134 19.392C22.25 18.525 22.25 17.422 22.25 16.055V10.945C22.25 9.578 22.25 8.475 22.134 7.608C22.012 6.708 21.754 5.95 21.152 5.348C20.621 4.818 19.969 4.553 19.205 4.416C19.0657 3.53351 18.6159 2.72974 17.9367 2.14934C17.2575 1.56894 16.3934 1.25002 15.5 1.25ZM17.63 4.271C17.4779 3.827 17.1909 3.44166 16.8089 3.16893C16.427 2.89619 15.9693 2.74971 15.5 2.75H11.5C9.593 2.75 8.239 2.752 7.21 2.89C6.205 3.025 5.625 3.279 5.202 3.702C4.779 4.125 4.525 4.705 4.39 5.711C4.252 6.739 4.25 8.093 4.25 10V16C4.24971 16.4693 4.39619 16.927 4.66892 17.3089C4.94166 17.6908 5.327 17.9779 5.771 18.13C5.75 17.52 5.75 16.83 5.75 16.055V10.945C5.75 9.578 5.75 8.475 5.867 7.608C5.987 6.708 6.247 5.95 6.848 5.348C7.45 4.746 8.208 4.488 9.108 4.367C9.975 4.25 11.078 4.25 12.445 4.25H15.555C16.33 4.25 17.02 4.25 17.63 4.271ZM7.908 6.41C8.185 6.133 8.573 5.953 9.308 5.854C10.062 5.753 11.064 5.751 12.499 5.751H15.499C16.934 5.751 17.935 5.753 18.691 5.854C19.425 5.953 19.813 6.134 20.09 6.41C20.367 6.687 20.547 7.075 20.646 7.81C20.747 8.564 20.749 9.566 20.749 11.001V16.001C20.749 17.436 20.747 18.437 20.646 19.193C20.547 19.927 20.366 20.315 20.09 20.592C19.813 20.869 19.425 21.049 18.69 21.148C17.935 21.249 16.934 21.251 15.499 21.251H12.499C11.064 21.251 10.062 21.249 9.307 21.148C8.573 21.049 8.185 20.868 7.908 20.592C7.631 20.315 7.451 19.927 7.352 19.192C7.251 18.437 7.249 17.436 7.249 16.001V11.001C7.249 9.566 7.251 8.564 7.352 7.809C7.451 7.075 7.632 6.687 7.908 6.41Z" fill="#284243"/>
</svg>
