<svg width="27" height="27" viewBox="0 0 27 27" fill="none" xmlns="http://www.w3.org/2000/svg">
<path d="M12.3333 2.73334H10.1999C4.86661 2.73334 2.73328 4.86667 2.73328 10.2V16.6C2.73328 21.9333 4.86661 24.0667 10.1999 24.0667H16.5999C21.9333 24.0667 24.0666 21.9333 24.0666 16.6V14.4667" stroke="white" stroke-width="1.5" stroke-linecap="round" stroke-linejoin="round"/>
<path d="M17.7092 3.82134L9.30389 12.2267C8.98389 12.5467 8.6639 13.176 8.5999 13.6347L8.14123 16.8453C7.97056 18.008 8.7919 18.8187 9.95456 18.6587L13.1652 18.2C13.6132 18.136 14.2426 17.816 14.5732 17.496L22.9786 9.09067C24.4292 7.64001 25.1119 5.95467 22.9786 3.82134C20.8452 1.68801 19.1599 2.37067 17.7092 3.82134V3.82134Z" stroke="white" stroke-width="1.5" stroke-miterlimit="10" stroke-linecap="round" stroke-linejoin="round"/>
<path d="M16.5039 5.02667C16.8576 6.28264 17.5279 7.42674 18.4505 8.34939C19.3732 9.27203 20.5173 9.94231 21.7732 10.296" stroke="white" stroke-width="1.5" stroke-miterlimit="10" stroke-linecap="round" stroke-linejoin="round"/>
</svg>
