<svg width="459" height="36" viewBox="0 0 459 36" fill="none" xmlns="http://www.w3.org/2000/svg">
<path d="M35.6 11.1L31.48 25H28.9L25.98 14.48L22.88 25L20.32 25.02L16.38 11.1H18.8L21.68 22.42L24.8 11.1H27.36L30.26 22.36L33.16 11.1H35.6ZM43.1805 13.8C44.0205 13.8 44.7671 13.98 45.4205 14.34C46.0871 14.7 46.6071 15.2333 46.9805 15.94C47.3671 16.6467 47.5605 17.5 47.5605 18.5V25H45.3005V18.84C45.3005 17.8533 45.0538 17.1 44.5605 16.58C44.0671 16.0467 43.3938 15.78 42.5405 15.78C41.6871 15.78 41.0071 16.0467 40.5005 16.58C40.0071 17.1 39.7605 17.8533 39.7605 18.84V25H37.4805V10.2H39.7605V15.26C40.1471 14.7933 40.6338 14.4333 41.2205 14.18C41.8205 13.9267 42.4738 13.8 43.1805 13.8ZM49.7088 19.44C49.7088 18.3333 49.9354 17.3533 50.3888 16.5C50.8554 15.6467 51.4821 14.9867 52.2688 14.52C53.0688 14.04 53.9488 13.8 54.9088 13.8C55.7754 13.8 56.5288 13.9733 57.1688 14.32C57.8221 14.6533 58.3421 15.0733 58.7288 15.58V13.98H61.0288V25H58.7288V23.36C58.3421 23.88 57.8154 24.3133 57.1488 24.66C56.4821 25.0067 55.7221 25.18 54.8688 25.18C53.9221 25.18 53.0554 24.94 52.2688 24.46C51.4821 23.9667 50.8554 23.2867 50.3888 22.42C49.9354 21.54 49.7088 20.5467 49.7088 19.44ZM58.7288 19.48C58.7288 18.72 58.5688 18.06 58.2488 17.5C57.9421 16.94 57.5354 16.5133 57.0288 16.22C56.5221 15.9267 55.9754 15.78 55.3888 15.78C54.8021 15.78 54.2554 15.9267 53.7488 16.22C53.2421 16.5 52.8288 16.92 52.5088 17.48C52.2021 18.0267 52.0488 18.68 52.0488 19.44C52.0488 20.2 52.2021 20.8667 52.5088 21.44C52.8288 22.0133 53.2421 22.4533 53.7488 22.76C54.2688 23.0533 54.8154 23.2 55.3888 23.2C55.9754 23.2 56.5221 23.0533 57.0288 22.76C57.5354 22.4667 57.9421 22.04 58.2488 21.48C58.5688 20.9067 58.7288 20.24 58.7288 19.48ZM66.6834 15.84V21.94C66.6834 22.3533 66.7768 22.6533 66.9634 22.84C67.1634 23.0133 67.4968 23.1 67.9634 23.1H69.3634V25H67.5634C66.5368 25 65.7501 24.76 65.2034 24.28C64.6568 23.8 64.3834 23.02 64.3834 21.94V15.84H63.0834V13.98H64.3834V11.24H66.6834V13.98H69.3634V15.84H66.6834ZM75.4648 25.18C74.5982 25.18 73.8182 25.0267 73.1248 24.72C72.4448 24.4 71.9048 23.9733 71.5048 23.44C71.1048 22.8933 70.8915 22.2867 70.8648 21.62H73.2248C73.2648 22.0867 73.4848 22.48 73.8848 22.8C74.2982 23.1067 74.8115 23.26 75.4248 23.26C76.0648 23.26 76.5582 23.14 76.9048 22.9C77.2648 22.6467 77.4448 22.3267 77.4448 21.94C77.4448 21.5267 77.2448 21.22 76.8448 21.02C76.4582 20.82 75.8382 20.6 74.9848 20.36C74.1582 20.1333 73.4848 19.9133 72.9648 19.7C72.4448 19.4867 71.9915 19.16 71.6048 18.72C71.2315 18.28 71.0448 17.7 71.0448 16.98C71.0448 16.3933 71.2182 15.86 71.5648 15.38C71.9115 14.8867 72.4048 14.5 73.0448 14.22C73.6982 13.94 74.4448 13.8 75.2848 13.8C76.5382 13.8 77.5448 14.12 78.3048 14.76C79.0782 15.3867 79.4915 16.2467 79.5448 17.34H77.2648C77.2248 16.8467 77.0248 16.4533 76.6648 16.16C76.3048 15.8667 75.8182 15.72 75.2048 15.72C74.6048 15.72 74.1448 15.8333 73.8248 16.06C73.5048 16.2867 73.3448 16.5867 73.3448 16.96C73.3448 17.2533 73.4515 17.5 73.6648 17.7C73.8782 17.9 74.1382 18.06 74.4448 18.18C74.7515 18.2867 75.2048 18.4267 75.8048 18.6C76.6048 18.8133 77.2582 19.0333 77.7648 19.26C78.2848 19.4733 78.7315 19.7933 79.1048 20.22C79.4782 20.6467 79.6715 21.2133 79.6848 21.92C79.6848 22.5467 79.5115 23.1067 79.1648 23.6C78.8182 24.0933 78.3248 24.48 77.6848 24.76C77.0582 25.04 76.3182 25.18 75.4648 25.18ZM90.5284 22.16H84.7084L83.7084 25H81.3284L86.3084 11.08H88.9484L93.9284 25H91.5284L90.5284 22.16ZM89.8884 20.3L87.6284 13.84L85.3484 20.3H89.8884ZM98.3738 15.6C98.7604 15.0933 99.2871 14.6667 99.9538 14.32C100.62 13.9733 101.374 13.8 102.214 13.8C103.174 13.8 104.047 14.04 104.834 14.52C105.634 14.9867 106.26 15.6467 106.714 16.5C107.167 17.3533 107.394 18.3333 107.394 19.44C107.394 20.5467 107.167 21.54 106.714 22.42C106.26 23.2867 105.634 23.9667 104.834 24.46C104.047 24.94 103.174 25.18 102.214 25.18C101.374 25.18 100.627 25.0133 99.9738 24.68C99.3204 24.3333 98.7871 23.9067 98.3738 23.4V30.24H96.0938V13.98H98.3738V15.6ZM105.074 19.44C105.074 18.68 104.914 18.0267 104.594 17.48C104.287 16.92 103.874 16.5 103.354 16.22C102.847 15.9267 102.3 15.78 101.714 15.78C101.14 15.78 100.594 15.9267 100.074 16.22C99.5671 16.5133 99.1538 16.94 98.8338 17.5C98.5271 18.06 98.3738 18.72 98.3738 19.48C98.3738 20.24 98.5271 20.9067 98.8338 21.48C99.1538 22.04 99.5671 22.4667 100.074 22.76C100.594 23.0533 101.14 23.2 101.714 23.2C102.3 23.2 102.847 23.0533 103.354 22.76C103.874 22.4533 104.287 22.0133 104.594 21.44C104.914 20.8667 105.074 20.2 105.074 19.44ZM111.928 15.6C112.315 15.0933 112.842 14.6667 113.508 14.32C114.175 13.9733 114.928 13.8 115.768 13.8C116.728 13.8 117.602 14.04 118.388 14.52C119.188 14.9867 119.815 15.6467 120.268 16.5C120.722 17.3533 120.948 18.3333 120.948 19.44C120.948 20.5467 120.722 21.54 120.268 22.42C119.815 23.2867 119.188 23.9667 118.388 24.46C117.602 24.94 116.728 25.18 115.768 25.18C114.928 25.18 114.182 25.0133 113.528 24.68C112.875 24.3333 112.342 23.9067 111.928 23.4V30.24H109.648V13.98H111.928V15.6ZM118.628 19.44C118.628 18.68 118.468 18.0267 118.148 17.48C117.842 16.92 117.428 16.5 116.908 16.22C116.402 15.9267 115.855 15.78 115.268 15.78C114.695 15.78 114.148 15.9267 113.628 16.22C113.122 16.5133 112.708 16.94 112.388 17.5C112.082 18.06 111.928 18.72 111.928 19.48C111.928 20.24 112.082 20.9067 112.388 21.48C112.708 22.04 113.122 22.4667 113.628 22.76C114.148 23.0533 114.695 23.2 115.268 23.2C115.855 23.2 116.402 23.0533 116.908 22.76C117.428 22.4533 117.842 22.0133 118.148 21.44C118.468 20.8667 118.628 20.2 118.628 19.44Z" fill="#9EA2A6"/>
<path d="M387 9.99886C385.409 9.99886 383.883 10.631 382.757 11.7562C381.632 12.8814 381 14.4076 381 15.9989C381 17.5902 381.632 19.1163 382.757 20.2415C383.883 21.3667 385.409 21.9989 387 21.9989C388.591 21.9989 390.117 21.3667 391.243 20.2415C392.368 19.1163 393 17.5902 393 15.9989C393 14.4076 392.368 12.8814 391.243 11.7562C390.117 10.631 388.591 9.99886 387 9.99886ZM379 15.9989C379 14.7257 379.304 13.471 379.887 12.339C380.469 11.207 381.314 10.2304 382.35 9.49034C383.386 8.7503 384.583 8.26819 385.843 8.08409C387.103 7.89998 388.388 8.0192 389.593 8.43183C390.797 8.84446 391.886 9.53859 392.768 10.4565C393.65 11.3745 394.301 12.4897 394.665 13.7095C395.03 14.9294 395.098 16.2186 394.864 17.4701C394.63 18.7215 394.101 19.8991 393.32 20.9049L398.707 26.2919C398.889 26.4805 398.99 26.7331 398.988 26.9953C398.985 27.2575 398.88 27.5083 398.695 27.6937C398.509 27.8791 398.259 27.9843 397.996 27.9865C397.734 27.9888 397.482 27.888 397.293 27.7059L391.906 22.3189C390.723 23.237 389.307 23.8048 387.818 23.9578C386.329 24.1109 384.826 23.8429 383.482 23.1845C382.137 22.5261 381.004 21.5036 380.212 20.2333C379.42 18.9631 379 17.496 379 15.9989Z" fill="#9EA2A6"/>
<path d="M427 11C427 9.89543 426.105 9 425 9C423.895 9 423 9.89543 423 11C423 12.1046 423.895 13 425 13C426.105 13 427 12.1046 427 11Z" fill="#9EA2A6"/>
<path d="M427 18C427 16.8954 426.105 16 425 16C423.895 16 423 16.8954 423 18C423 19.1046 423.895 20 425 20C426.105 20 427 19.1046 427 18Z" fill="#9EA2A6"/>
<path d="M427 25C427 23.8954 426.105 23 425 23C423.895 23 423 23.8954 423 25C423 26.1046 423.895 27 425 27C426.105 27 427 26.1046 427 25Z" fill="#9EA2A6"/>
</svg>
