<svg width="82" height="78" viewBox="0 0 82 78" fill="none" xmlns="http://www.w3.org/2000/svg">
<path fill-rule="evenodd" clip-rule="evenodd" d="M60.2789 0.9025C56.8139 0.4375 52.4039 0.4375 46.8989 0.4375H34.4452C28.9439 0.4375 24.5302 0.4375 21.0652 0.9025C17.4764 1.3825 14.4839 2.40625 12.1102 4.7725C9.63516 7.24 8.61891 10.3787 8.16141 14.1625L8.13891 14.35L8.15016 15.0813C7.34091 15.6101 6.5882 16.2208 5.90391 16.9037C3.09891 19.7125 1.85391 23.2712 1.26141 27.6662C0.68766 31.9412 0.68766 37.3975 0.68766 44.29V46.3338C0.69141 52.4275 0.73641 57.4225 1.26141 61.3338C1.85391 65.7288 3.09891 69.2875 5.90391 72.0962C8.71266 74.9012 12.2714 76.1463 16.6664 76.7388C20.9414 77.3125 26.3977 77.3125 33.2902 77.3125H48.7102C55.6027 77.3125 61.0627 77.3125 65.3339 76.7388C69.7289 76.1463 73.2877 74.9012 76.0964 72.0962C78.9014 69.2875 80.1464 65.7288 80.7389 61.3338C81.3127 57.0588 81.3127 51.6025 81.3127 44.71V44.29C81.3127 37.3975 81.3127 31.9375 80.7389 27.6662C80.1464 23.2712 78.9014 19.7125 76.0964 16.9037C75.2326 16.0393 74.2594 15.2917 73.2014 14.68V14.3312L73.1827 14.1625C72.7252 10.3787 71.7127 7.24 69.2339 4.7725C66.8602 2.41 63.8714 1.3825 60.2789 0.9025ZM6.31641 47.65C6.32766 53.1813 6.39891 57.325 6.83766 60.5875C7.34391 64.3563 8.29641 66.5313 9.88266 68.1175C11.4689 69.7038 13.6439 70.6563 17.4164 71.1625C21.2714 71.68 26.3489 71.6875 33.5002 71.6875H48.5002C55.6514 71.6875 60.7327 71.68 64.5877 71.1625C67.4489 70.78 69.3914 70.1388 70.8577 69.1563L60.7814 60.085C59.3612 58.8065 57.5491 58.048 55.6416 57.9335C53.7341 57.8191 51.8443 58.3555 50.2814 59.455L49.1677 60.2425C47.1812 61.6383 44.766 62.2884 42.3473 62.0785C39.9286 61.8686 37.6615 60.8121 35.9452 59.095L19.8577 43.0075C18.8146 41.9647 17.4142 41.3574 15.9401 41.3087C14.466 41.2599 13.0285 41.7734 11.9189 42.745L6.31641 47.65ZM64.5427 55.9038L74.2477 64.6413C74.6452 63.5313 74.9452 62.2037 75.1627 60.5837C75.6802 56.7325 75.6877 51.6512 75.6877 44.5C75.6877 37.3488 75.6802 32.2713 75.1627 28.4125C74.6564 24.6438 73.7039 22.4688 72.1177 20.8825C70.5314 19.2963 68.3564 18.3437 64.5839 17.8375C60.7327 17.32 55.6514 17.3125 48.5002 17.3125H33.5002C26.3489 17.3125 21.2714 17.32 17.4127 17.8375C13.6439 18.3437 11.4689 19.2963 9.88266 20.8825C8.29641 22.4688 7.34391 24.6438 6.83766 28.4163C6.42891 31.4425 6.33891 35.2262 6.32016 40.1725L8.21766 38.5112C10.4015 36.6007 13.2299 35.5917 16.1299 35.6885C19.0299 35.7852 21.7848 36.9806 23.8364 39.0325L39.9239 55.12C40.7044 55.8992 41.7346 56.3782 42.8334 56.4729C43.9322 56.5675 45.0292 56.2717 45.9314 55.6375L47.0489 54.85C49.6536 53.0196 52.8023 52.1271 55.98 52.3185C59.1578 52.5099 62.1766 53.7739 64.5427 55.9038ZM16.0777 8.7625C15.1777 9.65875 14.5327 10.8287 14.1052 12.7112C14.9525 12.5277 15.8069 12.3789 16.6664 12.265C20.9414 11.6912 26.3977 11.6912 33.2902 11.6912H48.7102C55.6027 11.6912 61.0627 11.6912 65.3339 12.265C65.9752 12.3512 66.5977 12.4525 67.2089 12.5688C66.7777 10.7688 66.1402 9.63625 65.2664 8.7625C64.1114 7.61125 62.5027 6.88 59.5327 6.4825C56.4839 6.07 52.4489 6.06625 46.6927 6.06625H34.6514C28.8952 6.06625 24.8602 6.07375 21.8114 6.47875C18.8414 6.88 17.2327 7.61125 16.0777 8.7625Z" fill="#284243"/>
</svg>
