<svg width="51" height="50" viewBox="0 0 51 50" fill="none" xmlns="http://www.w3.org/2000/svg">
<path d="M21.3333 22.9167V16.6667C21.3333 16.1141 21.1138 15.5842 20.7231 15.1935C20.3324 14.8028 19.8025 14.5833 19.25 14.5833H13C12.4475 14.5833 11.9176 14.8028 11.5269 15.1935C11.1362 15.5842 10.9167 16.1141 10.9167 16.6667V22.9167C10.9167 23.4692 11.1362 23.9991 11.5269 24.3898C11.9176 24.7805 12.4475 25 13 25H19.25C19.8025 25 20.3324 24.7805 20.7231 24.3898C21.1138 23.9991 21.3333 23.4692 21.3333 22.9167ZM21.3333 22.9167V27.0833C21.3333 29.2935 20.4554 31.4131 18.8926 32.9759C17.3298 34.5387 15.2101 35.4167 13 35.4167H10.9167M40.0833 22.9167V16.6667C40.0833 16.1141 39.8638 15.5842 39.4731 15.1935C39.0824 14.8028 38.5525 14.5833 38 14.5833H31.75C31.1975 14.5833 30.6676 14.8028 30.2769 15.1935C29.8862 15.5842 29.6667 16.1141 29.6667 16.6667V22.9167C29.6667 23.4692 29.8862 23.9991 30.2769 24.3898C30.6676 24.7805 31.1975 25 31.75 25H38C38.5525 25 39.0824 24.7805 39.4731 24.3898C39.8638 23.9991 40.0833 23.4692 40.0833 22.9167ZM40.0833 22.9167V27.0833C40.0833 29.2935 39.2054 31.4131 37.6426 32.9759C36.0798 34.5387 33.9601 35.4167 31.75 35.4167H29.6667" stroke="black" stroke-width="2" stroke-linecap="round" stroke-linejoin="round"/>
</svg>
