<svg width="17" height="18" viewBox="0 0 17 18" fill="none" xmlns="http://www.w3.org/2000/svg">
<path d="M0.5 15C0.5 13.9391 0.921427 12.9217 1.67157 12.1716C2.42172 11.4214 3.43913 11 4.5 11H12.5C13.5609 11 14.5783 11.4214 15.3284 12.1716C16.0786 12.9217 16.5 13.9391 16.5 15C16.5 15.5304 16.2893 16.0391 15.9142 16.4142C15.5391 16.7893 15.0304 17 14.5 17H2.5C1.96957 17 1.46086 16.7893 1.08579 16.4142C0.710714 16.0391 0.5 15.5304 0.5 15Z" stroke="white" stroke-opacity="0.3" stroke-linejoin="round"/>
<path d="M8.5 7C10.1569 7 11.5 5.65685 11.5 4C11.5 2.34315 10.1569 1 8.5 1C6.84315 1 5.5 2.34315 5.5 4C5.5 5.65685 6.84315 7 8.5 7Z" stroke="white" stroke-opacity="0.3"/>
</svg>
