<svg width="73" height="16" viewBox="0 0 73 16" fill="none" xmlns="http://www.w3.org/2000/svg">
<path d="M5.08 15.14C4.14667 15.14 3.30667 14.98 2.56 14.66C1.81333 14.3267 1.22667 13.86 0.8 13.26C0.373333 12.66 0.16 11.96 0.16 11.16H2.6C2.65333 11.76 2.88667 12.2533 3.3 12.64C3.72667 13.0267 4.32 13.22 5.08 13.22C5.86667 13.22 6.48 13.0333 6.92 12.66C7.36 12.2733 7.58 11.78 7.58 11.18C7.58 10.7133 7.44 10.3333 7.16 10.04C6.89333 9.74667 6.55333 9.52 6.14 9.36C5.74 9.2 5.18 9.02667 4.46 8.84C3.55333 8.6 2.81333 8.36 2.24 8.12C1.68 7.86667 1.2 7.48 0.8 6.96C0.4 6.44 0.2 5.74667 0.2 4.88C0.2 4.08 0.4 3.38 0.8 2.78C1.2 2.18 1.76 1.72 2.48 1.4C3.2 1.08 4.03333 0.919999 4.98 0.919999C6.32667 0.919999 7.42667 1.26 8.28 1.94C9.14667 2.60667 9.62667 3.52667 9.72 4.7H7.2C7.16 4.19333 6.92 3.76 6.48 3.4C6.04 3.04 5.46 2.86 4.74 2.86C4.08667 2.86 3.55333 3.02667 3.14 3.36C2.72667 3.69333 2.52 4.17333 2.52 4.8C2.52 5.22667 2.64667 5.58 2.9 5.86C3.16667 6.12667 3.5 6.34 3.9 6.5C4.3 6.66 4.84667 6.83333 5.54 7.02C6.46 7.27333 7.20667 7.52667 7.78 7.78C8.36667 8.03333 8.86 8.42667 9.26 8.96C9.67333 9.48 9.88 10.18 9.88 11.06C9.88 11.7667 9.68667 12.4333 9.3 13.06C8.92667 13.6867 8.37333 14.1933 7.64 14.58C6.92 14.9533 6.06667 15.14 5.08 15.14ZM21.5503 1.1V2.96H17.8503V15H15.5703V2.96H11.8503V1.1H21.5503ZM32.2394 12.16H26.4194L25.4194 15H23.0394L28.0194 1.08H30.6594L35.6394 15H33.2394L32.2394 12.16ZM31.5994 10.3L29.3394 3.84L27.0594 10.3H31.5994ZM46.7847 1.1V2.96H43.0847V15H40.8047V2.96H37.0847V1.1H46.7847ZM51.3538 1.1V9.96C51.3538 11.0133 51.6271 11.8067 52.1738 12.34C52.7338 12.8733 53.5071 13.14 54.4938 13.14C55.4938 13.14 56.2671 12.8733 56.8138 12.34C57.3738 11.8067 57.6538 11.0133 57.6538 9.96V1.1H59.9338V9.92C59.9338 11.0533 59.6871 12.0133 59.1938 12.8C58.7004 13.5867 58.0404 14.1733 57.2138 14.56C56.3871 14.9467 55.4738 15.14 54.4738 15.14C53.4738 15.14 52.5604 14.9467 51.7338 14.56C50.9204 14.1733 50.2738 13.5867 49.7938 12.8C49.3138 12.0133 49.0738 11.0533 49.0738 9.92V1.1H51.3538ZM67.4823 15.14C66.549 15.14 65.709 14.98 64.9623 14.66C64.2157 14.3267 63.629 13.86 63.2023 13.26C62.7757 12.66 62.5623 11.96 62.5623 11.16H65.0023C65.0557 11.76 65.289 12.2533 65.7023 12.64C66.129 13.0267 66.7223 13.22 67.4823 13.22C68.269 13.22 68.8823 13.0333 69.3223 12.66C69.7623 12.2733 69.9823 11.78 69.9823 11.18C69.9823 10.7133 69.8423 10.3333 69.5623 10.04C69.2957 9.74667 68.9557 9.52 68.5423 9.36C68.1423 9.2 67.5823 9.02667 66.8623 8.84C65.9557 8.6 65.2157 8.36 64.6423 8.12C64.0823 7.86667 63.6023 7.48 63.2023 6.96C62.8023 6.44 62.6023 5.74667 62.6023 4.88C62.6023 4.08 62.8023 3.38 63.2023 2.78C63.6023 2.18 64.1623 1.72 64.8823 1.4C65.6023 1.08 66.4357 0.919999 67.3823 0.919999C68.729 0.919999 69.829 1.26 70.6823 1.94C71.549 2.60667 72.029 3.52667 72.1223 4.7H69.6023C69.5623 4.19333 69.3223 3.76 68.8823 3.4C68.4423 3.04 67.8623 2.86 67.1423 2.86C66.489 2.86 65.9557 3.02667 65.5423 3.36C65.129 3.69333 64.9223 4.17333 64.9223 4.8C64.9223 5.22667 65.049 5.58 65.3023 5.86C65.569 6.12667 65.9023 6.34 66.3023 6.5C66.7023 6.66 67.249 6.83333 67.9423 7.02C68.8623 7.27333 69.609 7.52667 70.1823 7.78C70.769 8.03333 71.2623 8.42667 71.6623 8.96C72.0757 9.48 72.2823 10.18 72.2823 11.06C72.2823 11.7667 72.089 12.4333 71.7023 13.06C71.329 13.6867 70.7757 14.1933 70.0423 14.58C69.3223 14.9533 68.469 15.14 67.4823 15.14Z" fill="#9EA2A6"/>
</svg>
